<svg width="34" height="27" viewBox="0 0 34 27" fill="none" xmlns="http://www.w3.org/2000/svg">
<path d="M17 0C14.0158 7.76593e-05 11.0843 0.804839 8.49994 2.3334C5.9156 3.86196 3.76957 6.06046 2.27752 8.70793C0.785469 11.3554 -1.89526e-05 14.3586 3.42976e-10 17.4156C1.89533e-05 20.4726 0.785544 23.4758 2.27763 26.1232C2.50307 26.5251 2.8751 26.8187 3.31188 26.9396C3.74866 27.0604 4.21442 26.9985 4.60668 26.7676C4.99895 26.5367 5.28559 26.1555 5.40356 25.7081C5.52152 25.2606 5.46114 24.7835 5.2357 24.3817C4.03112 22.2676 3.39742 19.8633 3.39965 17.4155C3.40047 15.2789 3.88094 13.1712 4.80393 11.2552C5.72692 9.33926 7.06769 7.66643 8.72257 6.36608C10.3775 5.06573 12.3021 4.17269 14.3477 3.75602C16.3933 3.33936 18.505 3.41023 20.5196 3.96315C22.5342 4.51607 24.3977 5.53623 25.966 6.94474C27.5342 8.35326 28.7652 10.1124 29.5638 12.0861C30.3624 14.0599 30.7072 16.1953 30.5715 18.3273C30.4358 20.4594 29.8233 22.5309 28.7813 24.3817C28.6689 24.5804 28.596 24.8 28.5668 25.0278C28.5376 25.2555 28.5526 25.487 28.6111 25.7087C28.6696 25.9305 28.7703 26.1382 28.9074 26.32C29.0446 26.5017 29.2155 26.6538 29.4103 26.7676C29.8007 26.9946 30.2628 27.0543 30.696 26.9336C31.1291 26.8129 31.4981 26.5216 31.7224 26.1232C33.2145 23.4758 34 20.4726 34 17.4156C34 14.3586 33.2145 11.3554 31.7225 8.70793C30.2304 6.06046 28.0844 3.86196 25.5001 2.3334C22.9157 0.804839 19.9842 7.76593e-05 17 0ZM21.8281 10.0313L19.1931 12.7133C18.511 12.3688 17.7605 12.19 17 12.1908C15.9913 12.1908 15.0052 12.4973 14.1665 13.0713C13.3278 13.6454 12.6741 14.4614 12.2881 15.4161C11.9021 16.3708 11.8011 17.4213 11.9979 18.4348C12.1947 19.4482 12.6804 20.3792 13.3937 21.1099C14.1069 21.8405 15.0157 22.3381 16.005 22.5397C16.9943 22.7413 18.0198 22.6379 18.9517 22.2424C19.8837 21.847 20.6802 21.1773 21.2406 20.3181C21.801 19.4589 22.1001 18.4488 22.1001 17.4155C22.0989 16.6422 21.9245 15.8796 21.5901 15.1863L24.2252 12.5043C24.3845 12.3424 24.511 12.1498 24.5973 11.9376C24.6836 11.7254 24.7281 11.4977 24.7281 11.2678C24.7281 11.0379 24.6836 10.8103 24.5973 10.5981C24.511 10.3858 24.3845 10.1932 24.2252 10.0313C23.9067 9.70695 23.4758 9.52489 23.0267 9.52489C22.5775 9.52489 22.1466 9.70695 21.8281 10.0313ZM17 19.157C16.5491 19.157 16.1167 18.9735 15.7979 18.6469C15.4791 18.3203 15.3 17.8774 15.3 17.4155C15.3 16.9536 15.4791 16.5106 15.7979 16.184C16.1167 15.8574 16.5491 15.6739 17 15.6739C17.4436 15.6712 17.8706 15.8462 18.19 16.1616C18.3527 16.3249 18.4817 16.5201 18.5693 16.7355C18.6569 16.9509 18.7014 17.1821 18.7 17.4155C18.7 17.8774 18.5209 18.3203 18.2021 18.6469C17.8833 18.9735 17.4509 19.157 17 19.157Z" fill="#797979"/>
</svg>
