<svg width="32" height="29" viewBox="0 0 32 29" fill="none" xmlns="http://www.w3.org/2000/svg">
<path d="M16 14.5C15.137 14.5 14.2933 14.7551 13.5757 15.2331C12.8581 15.7111 12.2988 16.3905 11.9685 17.1853C11.6383 17.9802 11.5518 18.8548 11.7202 19.6986C11.8886 20.5425 12.3042 21.3176 12.9144 21.9259C13.5247 22.5343 14.3022 22.9486 15.1487 23.1164C15.9952 23.2843 16.8725 23.1981 17.6699 22.8689C18.4672 22.5396 19.1487 21.9821 19.6282 21.2667C20.1077 20.5514 20.3636 19.7104 20.3636 18.85C20.3636 17.6963 19.9039 16.5899 19.0856 15.7741C18.2672 14.9583 17.1573 14.5 16 14.5ZM16 20.3C15.7123 20.3 15.4311 20.215 15.1919 20.0556C14.9527 19.8963 14.7663 19.6698 14.6562 19.4049C14.5461 19.1399 14.5173 18.8484 14.5734 18.5671C14.6295 18.2858 14.7681 18.0275 14.9715 17.8247C15.1749 17.6219 15.4341 17.4838 15.7162 17.4279C15.9984 17.3719 16.2908 17.4006 16.5566 17.5104C16.8224 17.6201 17.0496 17.806 17.2094 18.0444C17.3692 18.2829 17.4545 18.5632 17.4545 18.85C17.4545 19.2346 17.3013 19.6034 17.0285 19.8753C16.7557 20.1472 16.3858 20.3 16 20.3ZM14.9673 11.1795C15.1056 11.3115 15.2687 11.415 15.4473 11.484C15.6214 11.5607 15.8096 11.6003 16 11.6003C16.1904 11.6003 16.3786 11.5607 16.5527 11.484C16.7313 11.415 16.8944 11.3115 17.0327 11.1795L20.3636 7.917C20.6452 7.63627 20.8035 7.25551 20.8035 6.8585C20.8035 6.46149 20.6452 6.08073 20.3636 5.8C20.082 5.51927 19.7001 5.36156 19.3018 5.36156C18.9036 5.36156 18.5216 5.51927 18.24 5.8L17.4545 6.6555V1.45C17.4545 1.06544 17.3013 0.696623 17.0285 0.424695C16.7557 0.152767 16.3858 0 16 0C15.6142 0 15.2443 0.152767 14.9715 0.424695C14.6987 0.696623 14.5455 1.06544 14.5455 1.45V6.6555L13.76 5.8C13.4784 5.51927 13.0964 5.36156 12.6982 5.36156C12.2999 5.36156 11.918 5.51927 11.6364 5.8C11.3548 6.08073 11.1965 6.46149 11.1965 6.8585C11.1965 7.25551 11.3548 7.63627 11.6364 7.917L14.9673 11.1795ZM26.1818 18.85C26.1818 18.5632 26.0965 18.2829 25.9367 18.0444C25.7769 17.806 25.5497 17.6201 25.2839 17.5104C25.0181 17.4006 24.7257 17.3719 24.4435 17.4279C24.1614 17.4838 23.9022 17.6219 23.6988 17.8247C23.4953 18.0275 23.3568 18.2858 23.3007 18.5671C23.2446 18.8484 23.2734 19.1399 23.3834 19.4049C23.4935 19.6698 23.68 19.8963 23.9192 20.0556C24.1584 20.215 24.4396 20.3 24.7273 20.3C25.113 20.3 25.483 20.1472 25.7558 19.8753C26.0286 19.6034 26.1818 19.2346 26.1818 18.85ZM27.6364 8.7H23.2727C22.887 8.7 22.517 8.85277 22.2442 9.1247C21.9714 9.39662 21.8182 9.76544 21.8182 10.15C21.8182 10.5346 21.9714 10.9034 22.2442 11.1753C22.517 11.4472 22.887 11.6 23.2727 11.6H27.6364C28.0221 11.6 28.3921 11.7528 28.6649 12.0247C28.9377 12.2966 29.0909 12.6654 29.0909 13.05V24.65C29.0909 25.0346 28.9377 25.4034 28.6649 25.6753C28.3921 25.9472 28.0221 26.1 27.6364 26.1H4.36364C3.97787 26.1 3.6079 25.9472 3.33512 25.6753C3.06234 25.4034 2.90909 25.0346 2.90909 24.65V13.05C2.90909 12.6654 3.06234 12.2966 3.33512 12.0247C3.6079 11.7528 3.97787 11.6 4.36364 11.6H8.72727C9.11304 11.6 9.48301 11.4472 9.75579 11.1753C10.0286 10.9034 10.1818 10.5346 10.1818 10.15C10.1818 9.76544 10.0286 9.39662 9.75579 9.1247C9.48301 8.85277 9.11304 8.7 8.72727 8.7H4.36364C3.20633 8.7 2.09642 9.1583 1.27808 9.97408C0.459739 10.7899 0 11.8963 0 13.05V24.65C0 25.8037 0.459739 26.9101 1.27808 27.7259C2.09642 28.5417 3.20633 29 4.36364 29H27.6364C28.7937 29 29.9036 28.5417 30.7219 27.7259C31.5403 26.9101 32 25.8037 32 24.65V13.05C32 11.8963 31.5403 10.7899 30.7219 9.97408C29.9036 9.1583 28.7937 8.7 27.6364 8.7ZM5.81818 18.85C5.81818 19.1368 5.90349 19.4171 6.06332 19.6556C6.22314 19.894 6.45031 20.0799 6.7161 20.1896C6.98188 20.2994 7.27434 20.3281 7.5565 20.2721C7.83865 20.2162 8.09782 20.0781 8.30125 19.8753C8.50467 19.6725 8.6432 19.4142 8.69932 19.1329C8.75545 18.8516 8.72664 18.5601 8.61655 18.2951C8.50646 18.0302 8.32003 17.8037 8.08083 17.6444C7.84163 17.485 7.56041 17.4 7.27273 17.4C6.88696 17.4 6.51699 17.5528 6.24421 17.8247C5.97143 18.0966 5.81818 18.4654 5.81818 18.85Z" fill="#797979"/>
</svg>
