<svg width="24" height="24" viewBox="0 0 24 24" fill="none" xmlns="http://www.w3.org/2000/svg">
<path fill-rule="evenodd" clip-rule="evenodd" d="M12.0055 0C5.39198 0 0 5.38435 0 11.9967C0 18.6091 5.39307 24 12.0055 24C18.6178 24 24 18.6091 24 11.9967C24 5.38435 18.6178 0 12.0055 0ZM12.0055 2.18122C13.2949 2.17907 14.5722 2.4315 15.7639 2.92404C16.9556 3.41658 18.0384 4.13953 18.9501 5.05144C19.8618 5.96336 20.5845 7.04628 21.0768 8.23811C21.5691 9.42994 21.8212 10.7072 21.8188 11.9967C21.8214 13.2866 21.5694 14.5642 21.0772 15.7565C20.5851 16.9488 19.8625 18.0322 18.9508 18.9446C18.0392 19.8571 16.9564 20.5807 15.7646 21.0739C14.5727 21.5671 13.2953 21.8202 12.0055 21.8188C10.7151 21.8204 9.43702 21.5674 8.24452 21.0744C7.05202 20.5814 5.96847 19.858 5.05593 18.9456C4.14338 18.0333 3.41974 16.9499 2.92646 15.7575C2.43318 14.5651 2.17993 13.2871 2.18122 11.9967C2.18122 6.5633 6.57202 2.18122 12.0055 2.18122ZM11.988 4.34718C11.8438 4.34859 11.7014 4.37857 11.5689 4.43538C11.4364 4.49219 11.3165 4.5747 11.2161 4.67815C11.1157 4.7816 11.0368 4.90393 10.984 5.03806C10.9311 5.17219 10.9054 5.31547 10.9083 5.4596V11.9967C10.9089 12.1402 10.9378 12.2822 10.9934 12.4145C11.049 12.5469 11.1301 12.6669 11.2322 12.7678L15.5947 17.1324C15.6956 17.2363 15.8161 17.319 15.9494 17.3757C16.0826 17.4325 16.2257 17.4621 16.3705 17.463C16.5153 17.4638 16.6588 17.4358 16.7927 17.3806C16.9265 17.3253 17.0481 17.244 17.1502 17.1414C17.2522 17.0387 17.3329 16.9167 17.3873 16.7825C17.4418 16.6484 17.469 16.5047 17.4673 16.3599C17.4657 16.2151 17.4352 16.0721 17.3777 15.9392C17.3202 15.8064 17.2368 15.6862 17.1324 15.5859L13.0917 11.5452V5.4596C13.0946 5.31345 13.0682 5.16819 13.0138 5.03248C12.9595 4.89676 12.8785 4.77334 12.7755 4.66957C12.6726 4.5658 12.5498 4.48378 12.4145 4.4284C12.2792 4.37301 12.1342 4.34539 11.988 4.34718Z" fill="#FC7F53"/>
</svg>
