<svg width="24" height="20" viewBox="0 0 24 20" fill="none" xmlns="http://www.w3.org/2000/svg">
<path d="M21.4286 3.33333H16.2857V1.66667C16.2852 1.22479 16.1044 0.801166 15.783 0.488716C15.4617 0.176265 15.0259 0.000507278 14.5714 0H9.42857C8.97407 0.000507278 8.53834 0.176265 8.21696 0.488716C7.89559 0.801166 7.71481 1.22479 7.71429 1.66667V3.33333H2.57143C1.88967 3.33406 1.23606 3.59769 0.753981 4.06637C0.271907 4.53505 0.000748696 5.17052 0 5.83333V17.5C0.000748696 18.1628 0.271907 18.7983 0.753981 19.267C1.23606 19.7356 1.88967 19.9993 2.57143 20H21.4286C22.1103 19.9993 22.7639 19.7356 23.246 19.267C23.7281 18.7983 23.9993 18.1628 24 17.5V5.83333C23.9993 5.17052 23.7281 4.53505 23.246 4.06637C22.7639 3.59769 22.1103 3.33406 21.4286 3.33333ZM18.9421 18.3333H18V5H18.9384C19.0984 5.81023 19.5018 6.5562 20.0975 7.14374C20.6933 7.73127 21.4547 8.13403 22.2857 8.30117V15.0322C21.4557 15.2006 20.6954 15.6038 20.1004 16.1912C19.5055 16.7786 19.1025 17.5239 18.9421 18.3333ZM1.71429 15.0322V8.30108C2.54433 8.13273 3.30463 7.72951 3.89957 7.14214C4.49451 6.55477 4.89752 5.80948 5.05791 5H6V18.3333H5.0616C4.90158 17.5231 4.49824 16.7771 3.90249 16.1896C3.30674 15.6021 2.54529 15.1993 1.71429 15.0322ZM7.71429 5H16.2857V18.3333H7.71429V5ZM22.2857 5.83333V6.56458C21.92 6.4361 21.5892 6.22849 21.3181 5.95744C21.0471 5.6864 20.843 5.359 20.7212 5H21.4286C21.6558 5.0002 21.8737 5.08806 22.0344 5.2443C22.1951 5.40053 22.2855 5.61238 22.2857 5.83333ZM9.42857 1.66667H14.5714V3.33333H9.42857V1.66667ZM2.57143 5H3.28731C3.16468 5.35995 2.95928 5.68799 2.68671 5.95919C2.41414 6.2304 2.08158 6.43764 1.71429 6.56517V5.83333C1.71449 5.61238 1.80486 5.40053 1.96556 5.2443C2.12626 5.08806 2.34416 5.0002 2.57143 5ZM1.71429 17.5V16.7687C2.07997 16.8972 2.41084 17.1048 2.68188 17.3758C2.95292 17.6469 3.15705 17.9743 3.27883 18.3333H2.57143C2.34416 18.3331 2.12626 18.2453 1.96556 18.089C1.80486 17.9328 1.71449 17.721 1.71429 17.5ZM21.4286 18.3333H20.7128C20.8354 17.9734 21.0408 17.6453 21.3133 17.3741C21.5859 17.1029 21.9184 16.8957 22.2857 16.7682V17.5C22.2855 17.721 22.1951 17.9328 22.0344 18.089C21.8737 18.2453 21.6558 18.3331 21.4286 18.3333Z" fill="#FC7F53"/>
</svg>
