<svg width="24" height="22" viewBox="0 0 24 22" fill="none" xmlns="http://www.w3.org/2000/svg">
<path d="M12 11C11.3527 11 10.72 11.1935 10.1818 11.5562C9.64357 11.9188 9.2241 12.4341 8.97639 13.0371C8.72869 13.6401 8.66388 14.3037 8.79016 14.9438C8.91644 15.5839 9.22813 16.1719 9.68583 16.6335C10.1435 17.095 10.7267 17.4093 11.3615 17.5366C11.9964 17.6639 12.6544 17.5986 13.2524 17.3488C13.8504 17.099 14.3616 16.6761 14.7212 16.1334C15.0808 15.5907 15.2727 14.9527 15.2727 14.3C15.2727 13.4248 14.9279 12.5854 14.3142 11.9665C13.7004 11.3477 12.868 11 12 11ZM12 15.4C11.7842 15.4 11.5733 15.3355 11.3939 15.2146C11.2145 15.0937 11.0747 14.922 10.9921 14.721C10.9096 14.52 10.888 14.2988 10.9301 14.0854C10.9721 13.872 11.076 13.676 11.2286 13.5222C11.3812 13.3683 11.5756 13.2636 11.7872 13.2211C11.9988 13.1787 12.2181 13.2005 12.4175 13.2837C12.6168 13.367 12.7872 13.508 12.9071 13.6889C13.0269 13.8698 13.0909 14.0824 13.0909 14.3C13.0909 14.5917 12.976 14.8715 12.7714 15.0778C12.5668 15.2841 12.2893 15.4 12 15.4ZM11.2255 8.481C11.3292 8.58115 11.4515 8.65965 11.5855 8.712C11.716 8.7702 11.8572 8.80026 12 8.80026C12.1428 8.80026 12.284 8.7702 12.4145 8.712C12.5485 8.65965 12.6708 8.58115 12.7745 8.481L15.2727 6.006C15.4839 5.79303 15.6026 5.50418 15.6026 5.203C15.6026 4.90182 15.4839 4.61297 15.2727 4.4C15.0615 4.18703 14.7751 4.06739 14.4764 4.06739C14.1777 4.06739 13.8912 4.18703 13.68 4.4L13.0909 5.049V1.1C13.0909 0.808262 12.976 0.528472 12.7714 0.322183C12.5668 0.115892 12.2893 0 12 0C11.7107 0 11.4332 0.115892 11.2286 0.322183C11.024 0.528472 10.9091 0.808262 10.9091 1.1V5.049L10.32 4.4C10.1088 4.18703 9.82233 4.06739 9.52364 4.06739C9.22494 4.06739 8.93848 4.18703 8.72727 4.4C8.51606 4.61297 8.39741 4.90182 8.39741 5.203C8.39741 5.50418 8.51606 5.79303 8.72727 6.006L11.2255 8.481ZM19.6364 14.3C19.6364 14.0824 19.5724 13.8698 19.4525 13.6889C19.3326 13.508 19.1623 13.367 18.9629 13.2837C18.7636 13.2005 18.5442 13.1787 18.3326 13.2211C18.121 13.2636 17.9266 13.3683 17.7741 13.5222C17.6215 13.676 17.5176 13.872 17.4755 14.0854C17.4334 14.2988 17.455 14.52 17.5376 14.721C17.6202 14.922 17.76 15.0937 17.9394 15.2146C18.1188 15.3355 18.3297 15.4 18.5455 15.4C18.8348 15.4 19.1123 15.2841 19.3168 15.0778C19.5214 14.8715 19.6364 14.5917 19.6364 14.3ZM20.7273 6.6H17.4545C17.1652 6.6 16.8877 6.71589 16.6832 6.92218C16.4786 7.12847 16.3636 7.40826 16.3636 7.7C16.3636 7.99174 16.4786 8.27153 16.6832 8.47782C16.8877 8.68411 17.1652 8.8 17.4545 8.8H20.7273C21.0166 8.8 21.2941 8.91589 21.4987 9.12218C21.7032 9.32847 21.8182 9.60826 21.8182 9.9V18.7C21.8182 18.9917 21.7032 19.2715 21.4987 19.4778C21.2941 19.6841 21.0166 19.8 20.7273 19.8H3.27273C2.9834 19.8 2.70592 19.6841 2.50134 19.4778C2.29675 19.2715 2.18182 18.9917 2.18182 18.7V9.9C2.18182 9.60826 2.29675 9.32847 2.50134 9.12218C2.70592 8.91589 2.9834 8.8 3.27273 8.8H6.54545C6.83478 8.8 7.11226 8.68411 7.31684 8.47782C7.52143 8.27153 7.63636 7.99174 7.63636 7.7C7.63636 7.40826 7.52143 7.12847 7.31684 6.92218C7.11226 6.71589 6.83478 6.6 6.54545 6.6H3.27273C2.40475 6.6 1.57232 6.94768 0.95856 7.56655C0.344804 8.18542 0 9.02479 0 9.9V18.7C0 19.5752 0.344804 20.4146 0.95856 21.0335C1.57232 21.6523 2.40475 22 3.27273 22H20.7273C21.5953 22 22.4277 21.6523 23.0414 21.0335C23.6552 20.4146 24 19.5752 24 18.7V9.9C24 9.02479 23.6552 8.18542 23.0414 7.56655C22.4277 6.94768 21.5953 6.6 20.7273 6.6ZM4.36364 14.3C4.36364 14.5176 4.42762 14.7302 4.54749 14.9111C4.66736 15.092 4.83774 15.233 5.03707 15.3163C5.23641 15.3995 5.45576 15.4213 5.66737 15.3789C5.87899 15.3364 6.07337 15.2317 6.22593 15.0778C6.3785 14.924 6.4824 14.728 6.52449 14.5146C6.56659 14.3012 6.54498 14.08 6.46241 13.879C6.37985 13.678 6.24002 13.5063 6.06062 13.3854C5.88122 13.2645 5.67031 13.2 5.45455 13.2C5.16522 13.2 4.88774 13.3159 4.68316 13.5222C4.47857 13.7285 4.36364 14.0083 4.36364 14.3Z" fill="#FC7F53"/>
</svg>
