<svg width="30" height="30" viewBox="0 0 30 30" fill="none" xmlns="http://www.w3.org/2000/svg">
<path d="M15.0211 0C13.0541 0 11.1063 0.387969 9.28894 1.14176C7.47161 1.89554 5.82035 3.00039 4.42944 4.3932C1.62035 7.20613 0.0422201 11.0213 0.0422201 14.9993C0.0291253 18.4629 1.22674 21.8218 3.42745 24.4939L0.431671 27.4938C0.223828 27.7047 0.0830317 27.9726 0.0270494 28.2635C-0.0289329 28.5545 0.00240695 28.8556 0.117114 29.1287C0.241526 29.3986 0.443211 29.6254 0.696568 29.7803C0.949925 29.9352 1.24353 30.0112 1.54011 29.9987H15.0211C18.9938 29.9987 22.8037 28.4184 25.6128 25.6055C28.4219 22.7925 30 18.9774 30 14.9993C30 11.0213 28.4219 7.20613 25.6128 4.3932C22.8037 1.58028 18.9938 0 15.0211 0ZM15.0211 26.9988H5.15002L6.54306 25.6039C6.82204 25.3228 6.97863 24.9427 6.97863 24.5464C6.97863 24.1502 6.82204 23.77 6.54306 23.489C4.5817 21.5271 3.36031 18.945 3.08697 16.1825C2.81363 13.42 3.50525 10.648 5.04401 8.33891C6.58277 6.02979 8.87346 4.32635 11.5258 3.5188C14.1782 2.71126 17.0281 2.84958 19.59 3.9102C22.1519 4.97081 24.2674 6.88811 25.5759 9.33542C26.8844 11.7827 27.3051 14.6087 26.7662 17.3317C26.2274 20.0548 24.7623 22.5066 22.6207 24.2693C20.4791 26.032 17.7933 26.9966 15.0211 26.9988Z" fill="#797979"/>
</svg>
