<svg width="35" height="35" viewBox="0 0 35 35" fill="none" xmlns="http://www.w3.org/2000/svg">
<path d="M29.9252 22.1811L27.3002 19.5416V13.0374C27.3352 10.6221 26.4951 8.27581 24.935 6.43164C23.375 4.58747 21.2004 3.37001 18.8127 3.00406C17.4271 2.82158 16.0184 2.93671 14.6807 3.34178C13.343 3.74685 12.1071 4.43253 11.0555 5.35309C10.0038 6.27365 9.16055 7.4079 8.58197 8.68018C8.00339 9.95246 7.7028 11.3335 7.70025 12.7311V19.5416L5.07525 22.1811C4.74553 22.5164 4.52193 22.9413 4.43242 23.4029C4.3429 23.8645 4.39143 24.3423 4.57195 24.7765C4.75246 25.2106 5.05695 25.5819 5.44734 25.844C5.83774 26.1061 6.29672 26.2473 6.76692 26.2499H11.6669V26.7457C11.735 28.2262 12.3873 29.6194 13.4807 30.6198C14.5741 31.6203 16.0195 32.1465 17.5002 32.0832C18.981 32.1465 20.4264 31.6203 21.5198 30.6198C22.6132 29.6194 23.2655 28.2262 23.3336 26.7457V26.2499H28.2336C28.7038 26.2473 29.1628 26.1061 29.5532 25.844C29.9436 25.5819 30.248 25.2106 30.4286 24.7765C30.6091 24.3423 30.6576 23.8645 30.5681 23.4029C30.4786 22.9413 30.255 22.5164 29.9252 22.1811ZM20.4169 26.7457C20.336 27.4472 19.9876 28.0904 19.4443 28.5414C18.901 28.9923 18.2046 29.2163 17.5002 29.1666C16.7959 29.2163 16.0995 28.9923 15.5562 28.5414C15.0129 28.0904 14.6645 27.4472 14.5836 26.7457V26.2499H20.4169V26.7457ZM8.03567 23.3332L9.7565 21.6124C10.0295 21.3411 10.246 21.0184 10.3937 20.663C10.5414 20.3076 10.6172 19.9264 10.6169 19.5416V12.7311C10.6177 11.7474 10.8289 10.7751 11.2364 9.87968C11.6439 8.98424 12.2382 8.18633 12.9794 7.53948C13.7107 6.87693 14.5771 6.3812 15.5189 6.08659C16.4606 5.79198 17.4551 5.70553 18.4336 5.83323C20.1201 6.10707 21.651 6.98095 22.7443 8.29399C23.8376 9.60703 24.4197 11.2708 24.3836 12.9791V19.5416C24.3814 19.9254 24.4549 20.3059 24.6001 20.6613C24.7452 21.0166 24.9591 21.3399 25.2294 21.6124L26.9648 23.3332H8.03567Z" fill="#ffffff"/>
</svg>
