<svg width="28" height="20" viewBox="0 0 28 20" fill="none" xmlns="http://www.w3.org/2000/svg">
<path d="M16.5102 5.49099H1.91835C1.62066 5.49099 1.33516 5.37273 1.12466 5.16223C0.914156 4.95173 0.795898 4.66623 0.795898 4.36854C0.795898 4.07085 0.914156 3.78535 1.12466 3.57485C1.33516 3.36435 1.62066 3.24609 1.91835 3.24609H16.5102C16.8079 3.24609 17.0934 3.36435 17.3039 3.57485C17.5144 3.78535 17.6326 4.07085 17.6326 4.36854C17.6326 4.66623 17.5144 4.95173 17.3039 5.16223C17.0934 5.37273 16.8079 5.49099 16.5102 5.49099ZM26.6122 5.49099H22.1224C21.8247 5.49099 21.5392 5.37273 21.3287 5.16223C21.1182 4.95173 21 4.66623 21 4.36854C21 4.07085 21.1182 3.78535 21.3287 3.57485C21.5392 3.36435 21.8247 3.24609 22.1224 3.24609H26.6122C26.9099 3.24609 27.1954 3.36435 27.4059 3.57485C27.6164 3.78535 27.7347 4.07085 27.7347 4.36854C27.7347 4.66623 27.6164 4.95173 27.4059 5.16223C27.1954 5.37273 26.9099 5.49099 26.6122 5.49099Z" fill="white"/>
<path d="M19.3163 8.2966C18.5393 8.2966 17.7798 8.06619 17.1337 7.63451C16.4877 7.20284 15.9841 6.58928 15.6868 5.87142C15.3894 5.15357 15.3116 4.36367 15.4632 3.6016C15.6148 2.83953 15.989 2.13953 16.5384 1.59011C17.0878 1.04069 17.7878 0.666526 18.5499 0.514941C19.312 0.363357 20.1019 0.441155 20.8197 0.7385C21.5376 1.03584 22.1511 1.53938 22.5828 2.18543C23.0145 2.83148 23.2449 3.59103 23.2449 4.36803C23.2449 5.40995 22.831 6.40919 22.0942 7.14595C21.3575 7.8827 20.3582 8.2966 19.3163 8.2966ZM19.3163 2.68435C18.9833 2.68435 18.6578 2.7831 18.3809 2.9681C18.104 3.15311 17.8882 3.41606 17.7608 3.72371C17.6334 4.03136 17.6 4.36989 17.665 4.6965C17.7299 5.0231 17.8903 5.3231 18.1258 5.55856C18.3612 5.79403 18.6612 5.95438 18.9878 6.01935C19.3144 6.08431 19.653 6.05097 19.9606 5.92354C20.2683 5.7961 20.5312 5.5803 20.7162 5.30342C20.9012 5.02655 21 4.70103 21 4.36803C21 3.92149 20.8226 3.49324 20.5068 3.17749C20.1911 2.86174 19.7628 2.68435 19.3163 2.68435ZM26.6122 16.715H12.0204C11.7227 16.715 11.4372 16.5967 11.2267 16.3862C11.0162 16.1757 10.8979 15.8902 10.8979 15.5925C10.8979 15.2948 11.0162 15.0093 11.2267 14.7988C11.4372 14.5883 11.7227 14.4701 12.0204 14.4701H26.6122C26.9099 14.4701 27.1954 14.5883 27.4059 14.7988C27.6164 15.0093 27.7347 15.2948 27.7347 15.5925C27.7347 15.8902 27.6164 16.1757 27.4059 16.3862C27.1954 16.5967 26.9099 16.715 26.6122 16.715ZM6.40814 16.715H1.91835C1.62066 16.715 1.33516 16.5967 1.12466 16.3862C0.914156 16.1757 0.795898 15.8902 0.795898 15.5925C0.795898 15.2948 0.914156 15.0093 1.12466 14.7988C1.33516 14.5883 1.62066 14.4701 1.91835 14.4701H6.40814C6.70584 14.4701 6.99133 14.5883 7.20183 14.7988C7.41233 15.0093 7.53059 15.2948 7.53059 15.5925C7.53059 15.8902 7.41233 16.1757 7.20183 16.3862C6.99133 16.5967 6.70584 16.715 6.40814 16.715Z" fill="white"/>
<path d="M9.21422 19.5212C8.43722 19.5212 7.67767 19.2908 7.03162 18.8591C6.38557 18.4274 5.88204 17.8139 5.58469 17.096C5.28735 16.3782 5.20955 15.5883 5.36113 14.8262C5.51272 14.0641 5.88688 13.3641 6.4363 12.8147C6.98572 12.2653 7.68572 11.8911 8.44779 11.7396C9.20986 11.588 9.99976 11.6658 10.7176 11.9631C11.4355 12.2605 12.049 12.764 12.4807 13.41C12.9124 14.0561 13.1428 14.8156 13.1428 15.5926C13.1428 16.6346 12.7289 17.6338 11.9921 18.3706C11.2554 19.1073 10.2561 19.5212 9.21422 19.5212ZM9.21422 13.909C8.88122 13.909 8.5557 14.0077 8.27882 14.1927C8.00194 14.3777 7.78614 14.6407 7.65871 14.9483C7.53127 15.256 7.49793 15.5945 7.5629 15.9211C7.62786 16.2477 7.78821 16.5477 8.02368 16.7832C8.25915 17.0186 8.55915 17.179 8.88575 17.244C9.21235 17.3089 9.55088 17.2756 9.85853 17.1481C10.1662 17.0207 10.4291 16.8049 10.6141 16.528C10.7991 16.2512 10.8979 15.9256 10.8979 15.5926C10.8979 15.1461 10.7205 14.7178 10.4048 14.4021C10.089 14.0863 9.66076 13.909 9.21422 13.909Z" fill="white"/>
</svg>
