<svg width="25" height="26" viewBox="0 0 25 26" fill="none" xmlns="http://www.w3.org/2000/svg">
<path d="M6.47461 16.0674L10.0497 11.4209L14.1276 14.6245L17.6262 10.1094" stroke="#FC7F53" stroke-width="2" stroke-linecap="round" stroke-linejoin="round"/>
<path d="M21.704 5.72438C22.9719 5.72438 23.9998 4.69652 23.9998 3.4286C23.9998 2.16067 22.9719 1.13281 21.704 1.13281C20.4361 1.13281 19.4082 2.16067 19.4082 3.4286C19.4082 4.69652 20.4361 5.72438 21.704 5.72438Z" stroke="#FC7F53" stroke-width="2" stroke-linecap="round" stroke-linejoin="round"/>
<path d="M15.6473 2.13867H6.96618C3.36909 2.13867 1.13867 4.68616 1.13867 8.28325V17.9375C1.13867 21.5346 3.32536 24.0711 6.96618 24.0711H17.2436C20.8407 24.0711 23.0711 21.5346 23.0711 17.9375V9.52966" stroke="#FC7F53" stroke-width="2" stroke-linecap="round" stroke-linejoin="round"/>
</svg>
