<svg width="32" height="32" viewBox="0 0 32 32" fill="none" xmlns="http://www.w3.org/2000/svg">
<path d="M7.80078 20.0356L12.3576 14.1131L17.5554 18.1965L22.0148 12.4414" stroke="#ffffff" stroke-width="2" stroke-linecap="round" stroke-linejoin="round"/>
<path d="M27.2134 6.85249C28.8295 6.85249 30.1396 5.54237 30.1396 3.92625C30.1396 2.31013 28.8295 1 27.2134 1C25.5972 1 24.2871 2.31013 24.2871 3.92625C24.2871 5.54237 25.5972 6.85249 27.2134 6.85249Z" stroke="#ffffff" stroke-width="2" stroke-linecap="round" stroke-linejoin="round"/>
<path d="M19.493 2.28125H8.42785C3.84293 2.28125 1 5.52832 1 10.1132V22.4187C1 27.0036 3.78719 30.2367 8.42785 30.2367H21.5276C26.1126 30.2367 28.9555 27.0036 28.9555 22.4187V11.7019" stroke="#ffffff" stroke-width="2" stroke-linecap="round" stroke-linejoin="round"/>
</svg>
