<svg width="34" height="31" viewBox="0 0 34 31" fill="none" xmlns="http://www.w3.org/2000/svg">
<path d="M9.13517 30.566H24.339C27.701 30.566 30.436 27.8311 30.436 24.4691V13.8111H31.6654C32.4436 13.8111 33.1324 13.3155 33.3799 12.5782C33.6275 11.8409 33.3764 11.03 32.7559 10.5606L20.4143 1.22841C18.2502 -0.409664 15.2251 -0.409081 13.0599 1.22783L0.718299 10.5606C0.0977461 11.03 -0.153277 11.8409 0.0942435 12.5782C0.341764 13.3155 1.03062 13.8111 1.80879 13.8111H3.03822V24.4691C3.03822 27.8311 5.77321 30.566 9.13517 30.566ZM18.9724 3.1356L29.9275 11.42H29.2404C28.5801 11.42 28.0448 11.9553 28.0448 12.6155V24.4691C28.0448 26.5123 26.3822 28.1749 24.339 28.1749H9.13517C7.09196 28.1749 5.42937 26.5123 5.42937 24.4691V12.6155C5.42937 11.9553 4.89404 11.42 4.23379 11.42H3.54669L14.5018 3.13502C15.8188 2.14027 17.6565 2.13968 18.9724 3.1356Z" fill="#797979"/>
<path d="M11.8352 16.1201C11.175 16.1201 10.6396 16.6555 10.6396 17.3157C10.6396 17.976 11.175 18.5113 11.8352 18.5113H15.541V22.2177C15.541 22.8779 16.0763 23.4132 16.7366 23.4132C17.3968 23.4132 17.9322 22.8779 17.9322 22.2177V18.5113H21.638C22.2982 18.5113 22.8335 17.976 22.8335 17.3157C22.8335 16.6555 22.2982 16.1201 21.638 16.1201H17.9322V12.4143C17.9322 11.7541 17.3968 11.2188 16.7366 11.2188C16.0763 11.2188 15.541 11.7541 15.541 12.4143V16.1201H11.8352Z" fill="#797979"/>
</svg>
